<?xml version="1.0" encoding="UTF-8" standalone="no"?>
<!DOCTYPE svg PUBLIC "-//W3C//DTD SVG 1.1//EN" "http://www.w3.org/Graphics/SVG/1.1/DTD/svg11.dtd">
<svg width="100%" height="100%" viewBox="0 0 1080 1080" version="1.1" xmlns="http://www.w3.org/2000/svg" xmlns:xlink="http://www.w3.org/1999/xlink" xml:space="preserve" xmlns:serif="http://www.serif.com/" style="fill-rule:evenodd;clip-rule:evenodd;stroke-linecap:round;stroke-linejoin:round;stroke-miterlimit:1.5;">
    <g transform="matrix(1,0,0,1,21.2014,0)">
        <path d="M75.967,57.052L435.066,1059.48" style="fill:none;stroke:rgb(218,229,241);stroke-width:4.31px;"/>
    </g>
    <g transform="matrix(1,0,0,1,21.2014,0)">
        <path d="M240.278,0L0,958.774" style="fill:none;stroke:rgb(218,229,241);stroke-width:4.31px;"/>
    </g>
    <g transform="matrix(1,0,0,1,13.3138,68.2303)">
        <g transform="matrix(144,0,0,144,695.625,430.064)">
        </g>
        <text x="351.586px" y="430.064px" style="font-family:'TimesNewRomanPSMT', 'Times New Roman';font-size:144px;fill:rgb(218,229,241);">John</text>
    </g>
    <g transform="matrix(1,0,0,1,680.435,498.294)">
        <g transform="matrix(144,0,0,144,295.945,0)">
        </g>
        <text x="0px" y="0px" style="font-family:'TimesNewRomanPSMT', 'Times New Roman';font-size:144px;fill:rgb(218,229,241);">Nash</text>
    </g>
    <g transform="matrix(1,0,0,1,458.494,658.251)">
        <g transform="matrix(144,0,0,144,431.93,0)">
        </g>
        <text x="0px" y="0px" style="font-family:'TimesNewRomanPSMT', 'Times New Roman';font-size:144px;fill:rgb(218,229,241);">Society</text>
    </g>
</svg>
